<?xml version="1.0" encoding="UTF-8"?>
<svg width="40px" height="40px" viewBox="0 0 40 40" version="1.1" xmlns="http://www.w3.org/2000/svg" xmlns:xlink="http://www.w3.org/1999/xlink">
    <!-- Generator: Sketch 52.1 (67048) - http://www.bohemiancoding.com/sketch -->
    <title>github [#142]</title>
    <desc>Created with Sketch.</desc>
    <g id="Desktop-Desktop" stroke="none" stroke-width="1" fill="none" fill-rule="evenodd">
        <g id="Desktop-Homepage-1" transform="translate(-655.000000, -1816.000000)" fill="#000000">
            <g id="Footer" transform="translate(404.000000, 1545.000000)">
                <path d="M291,291.505924 C291,300.56389 285.276,308.247862 277.334,310.961852 C276.32,311.163851 275.96,310.523854 275.96,309.977856 C275.96,309.301858 275.984,307.093866 275.984,304.349876 C275.984,302.437883 275.344,301.189888 274.626,300.55389 C279.08,300.045892 283.76,298.311899 283.76,290.435928 C283.76,288.195936 282.984,286.367943 281.7,284.931948 C281.908,284.41395 282.594,282.327958 281.504,279.503968 C281.504,279.503968 279.828,278.953971 276.01,281.605961 C274.412,281.151962 272.7,280.923963 271,280.915963 C269.3,280.923963 267.59,281.151962 265.994,281.605961 C262.172,278.953971 260.492,279.503968 260.492,279.503968 C259.406,282.327958 260.092,284.41395 260.298,284.931948 C259.02,286.367943 258.238,288.195936 258.238,290.435928 C258.238,298.291899 262.908,300.051892 267.35,300.56989 C266.778,301.081889 266.26,301.985885 266.08,303.31188 C264.94,303.835878 262.044,304.741875 260.26,301.607887 C260.26,301.607887 259.202,299.637894 257.194,299.493894 C257.194,299.493894 255.244,299.467894 257.058,300.73989 C257.058,300.73989 258.368,301.369887 259.278,303.739879 C259.278,303.739879 260.452,307.399865 266.016,306.15987 C266.026,307.873863 266.044,309.489857 266.044,309.977856 C266.044,310.519854 265.676,311.153851 264.678,310.963852 C256.73,308.253862 251,300.56589 251,291.505924 C251,280.179966 259.956,271 271,271 C282.046,271 291,280.179966 291,291.505924 Z" id="github-[#142]"></path>
            </g>
        </g>
    </g>
</svg>