<?xml version="1.0" encoding="UTF-8"?>
<svg width="40px" height="40px" viewBox="0 0 40 40" version="1.1" xmlns="http://www.w3.org/2000/svg" xmlns:xlink="http://www.w3.org/1999/xlink">
    <!-- Generator: Sketch 52.1 (67048) - http://www.bohemiancoding.com/sketch -->
    <title>linkedin [#161]</title>
    <desc>Created with Sketch.</desc>
    <g id="Desktop-Desktop" stroke="none" stroke-width="1" fill="none" fill-rule="evenodd">
        <g id="Desktop-Homepage-1" transform="translate(-728.000000, -1816.000000)" fill="#000000">
            <g id="Footer" transform="translate(404.000000, 1545.000000)">
                <path d="M364,311 L356,311 L356,297.002 C356,293.162 354.306,291.02 351.268,291.02 C347.962,291.02 346,293.252 346,297.002 L346,311 L338,311 L338,285 L346,285 L346,287.924 C346,287.924 348.51,283.52 354.166,283.52 C359.824,283.52 364,286.972 364,294.116 L364,311 L364,311 Z M328.884,280.842 C326.186,280.842 324,278.638 324,275.92 C324,273.204 326.186,271 328.884,271 C331.58,271 333.766,273.204 333.766,275.92 C333.768,278.638 331.58,280.842 328.884,280.842 L328.884,280.842 Z M324,311 L334,311 L334,285 L324,285 L324,311 Z" id="linkedin-[#161]"></path>
            </g>
        </g>
    </g>
</svg>