<?xml version="1.0" encoding="UTF-8"?>
<svg width="39px" height="64px" viewBox="0 0 39 64" version="1.1" xmlns="http://www.w3.org/2000/svg" xmlns:xlink="http://www.w3.org/1999/xlink">
    <!-- Generator: Sketch 52.1 (67048) - http://www.bohemiancoding.com/sketch -->
    <title>Combined Shape</title>
    <desc>Created with Sketch.</desc>
    <g id="Symbols" stroke="none" stroke-width="1" fill="none" fill-rule="evenodd">
        <g id="FINAL-PORTFOLIO-MENU" transform="translate(-64.000000, -31.000000)" fill="#36431D">
            <path d="M69.5458772,70.5116527 L69.5353214,70.5267281 L66.6634925,68.5158519 L73.99188,58.04983 C68.0693717,52.8395115 66.8139171,44.0128877 71.3462422,37.5400566 C75.8785673,31.0672255 84.6022713,29.2280838 91.5239863,33.0113873 L91.5282595,33.0052845 L91.5842794,33.04451 C91.6174009,33.0627979 91.6504806,33.081215 91.6835178,33.0997614 L91.676829,33.109314 L94.4000883,35.0161607 L78.9255464,57.1160968 L83.8161371,60.6693189 L91.3303036,50.326956 L92.5826117,51.236811 L100.985468,57.3418435 L100.968094,57.365757 L101.119822,57.4759937 L93.5764846,67.8585067 C99.6208628,73.3314488 100.872862,82.3239865 96.2075986,88.7451706 C91.5423353,95.1663546 82.6030347,96.7544797 75.5301419,92.6971665 L75.5257434,92.7032206 L75.4685326,92.6616545 C75.4346884,92.6420528 75.4008875,92.6223214 75.3671305,92.6024602 L75.3740155,92.5929838 L72.592864,90.572359 L88.5697447,68.5820694 L84.628611,65.7186682 L79.2588605,73.1094958 L77.1384551,76.0279834 L69.5458772,70.5116527 Z M71.6153403,67.5561533 L76.3259811,70.9786342 L81.6957317,63.5878066 L76.8560834,60.0715963 L71.6153403,67.5561533 Z M96.0839112,58.2397064 L92.1427776,55.3763052 L86.7490164,62.8001805 L90.6901501,65.6635817 L96.0839112,58.2397064 Z M91.5384943,70.6635597 L77.5613475,89.9014519 C83.1684169,93.5043135 89.458204,91.6388611 93.111963,86.6098934 C96.5245214,81.9129096 95.7143053,75.30746 91.5384943,70.6635597 Z M98.4088477,46.8822252 C99.209387,45.7803774 100.782382,45.5585001 101.92223,46.3866484 C103.062079,47.2147967 103.337143,48.7793678 102.536604,49.8812156 C101.736064,50.9830634 100.163069,51.2049407 99.0232211,50.3767924 C97.8833727,49.5486441 97.6083084,47.9840731 98.4088477,46.8822252 Z M65.4086636,76.0845161 C66.2092029,74.9826682 67.7821979,74.7607909 68.9220463,75.5889393 C70.0618947,76.4170876 70.336959,77.9816586 69.5364197,79.0835064 C68.7358804,80.1853543 67.1628854,80.4072315 66.023037,79.5790832 C64.8831886,78.7509349 64.6081243,77.1863639 65.4086636,76.0845161 Z M75.971797,55.2222154 L89.5506606,35.8295884 C84.0620271,32.4494324 77.9266676,34.4808884 74.3770237,39.5503053 C71.0617072,44.285068 71.87703,50.7719947 75.971797,55.2222154 Z" id="Combined-Shape"></path>
        </g>
    </g>
</svg>