<?xml version="1.0" encoding="UTF-8"?>
<svg width="120px" height="98px" viewBox="0 0 120 98" version="1.1" xmlns="http://www.w3.org/2000/svg" xmlns:xlink="http://www.w3.org/1999/xlink">
    <!-- Generator: Sketch 52.1 (67048) - http://www.bohemiancoding.com/sketch -->
    <title>Photography</title>
    <desc>Created with Sketch.</desc>
    <g id="Desktop-Desktop" stroke="none" stroke-width="1" fill="none" fill-rule="evenodd">
        <g id="Desktop---About-Me" transform="translate(-647.000000, -3597.000000)" fill="#FFFFFF">
            <g id="What-I-like" transform="translate(0.000000, 3179.000000)">
                <g id="Hobies" transform="translate(232.000000, 401.000000)">
                    <g id="Icons">
                        <g id="Photography" transform="translate(415.512812, 17.882353)">
                            <path d="M108.242833,96.3208556 L10.4751129,96.3208556 C4.69983399,96.3208556 0,91.6905745 0,86.0007639 L0,24.0802139 C0,18.3904034 4.69983399,13.7601222 10.4751129,13.7601222 L31.4253387,13.7601222 C32.0224201,13.7601222 33.08739,13.1099565 33.3562512,12.5836318 L37.2145844,4.97772422 C38.6531666,2.13969901 42.1693128,0 45.3886642,0 L73.3257903,0 C76.5486334,0 80.0647796,2.13969901 81.5033618,4.97772422 L85.361695,12.5836318 C85.6305563,13.1099565 86.6955261,13.7601222 87.2926075,13.7601222 L108.242833,13.7601222 C114.018112,13.7601222 118.717946,18.3904034 118.717946,24.0802139 L118.717946,86.0007639 C118.717946,91.6905745 114.018112,96.3208556 108.242833,96.3208556 L108.242833,96.3208556 Z M10.4751129,20.6401833 C8.55118383,20.6401833 6.9834086,22.181317 6.9834086,24.0802139 L6.9834086,86.0007639 C6.9834086,87.8996608 8.55118383,89.4407945 10.4751129,89.4407945 L108.242833,89.4407945 C110.166762,89.4407945 111.734538,87.8996608 111.734538,86.0007639 L111.734538,24.0802139 C111.734538,22.181317 110.166762,20.6401833 108.242833,20.6401833 L87.2926075,20.6401833 C84.0732562,20.6401833 80.5571099,18.5004843 79.1150361,15.6624591 L75.2567028,8.05655157 C74.9913333,7.53022689 73.9263635,6.88006112 73.3257903,6.88006112 L45.3886642,6.88006112 C44.7915828,6.88006112 43.7301047,7.53022689 43.4647351,8.05311154 L39.6029102,15.6624591 C38.1608363,18.5004843 34.6446901,20.6401833 31.4253387,20.6401833 L10.4751129,20.6401833 L10.4751129,20.6401833 Z" id="Fill-21"></path>
                            <path d="M59.3589731,82.5607334 C42.0331364,82.5607334 27.9336344,68.67333 27.9336344,51.6004584 C27.9336344,34.5275867 42.0331364,20.6401833 59.3589731,20.6401833 C76.6848099,20.6401833 90.7843118,34.5275867 90.7843118,51.6004584 C90.7843118,68.67333 76.6848099,82.5607334 59.3589731,82.5607334 L59.3589731,82.5607334 Z M59.3589731,27.5202445 C45.8809945,27.5202445 34.917043,38.3253804 34.917043,51.6004584 C34.917043,64.8755363 45.8809945,75.6806723 59.3589731,75.6806723 C72.8369517,75.6806723 83.8009032,64.8755363 83.8009032,51.6004584 C83.8009032,38.3253804 72.8369517,27.5202445 59.3589731,27.5202445 L59.3589731,27.5202445 Z" id="Fill-22"></path>
                            <path d="M97.7677204,27.5202445 C97.7677204,29.4191413 96.2034369,30.960275 94.2760161,30.960275 C92.3485954,30.960275 90.7843118,29.4191413 90.7843118,27.5202445 C90.7843118,25.6213476 92.3485954,24.0802139 94.2760161,24.0802139 C96.2034369,24.0802139 97.7677204,25.6213476 97.7677204,27.5202445" id="Fill-23"></path>
                            <polygon id="Fill-24" points="13.9668172 6.88006112 27.9336344 6.88006112 27.9336344 10.3200917 13.9668172 10.3200917"></polygon>
                            <path d="M59.3589731,37.8403361 L59.3589731,34.4003056 C49.7183775,34.4003056 41.9004516,42.102534 41.9004516,51.6004584 L45.3921559,51.6004584 C45.3921559,44.011751 51.6562734,37.8403361 59.3589731,37.8403361" id="Fill-25"></path>
                        </g>
                    </g>
                </g>
            </g>
        </g>
    </g>
</svg>