<?xml version="1.0" encoding="UTF-8"?>
<svg width="120px" height="123px" viewBox="0 0 120 123" version="1.1" xmlns="http://www.w3.org/2000/svg" xmlns:xlink="http://www.w3.org/1999/xlink">
    <!-- Generator: Sketch 52.1 (67048) - http://www.bohemiancoding.com/sketch -->
    <title>Music</title>
    <desc>Created with Sketch.</desc>
    <g id="Desktop-Desktop" stroke="none" stroke-width="1" fill="none" fill-rule="evenodd">
        <g id="Desktop---About-Me" transform="translate(-859.000000, -3583.000000)" stroke="#FFFFFF" stroke-width="5">
            <g id="What-I-like" transform="translate(0.000000, 3179.000000)">
                <g id="Hobies" transform="translate(232.000000, 401.000000)">
                    <g id="Icons">
                        <g id="Music" transform="translate(629.864659, 4.801743)">
                            <rect id="Rectangle-path" x="10.9585797" y="76.3035585" width="19.7254434" height="41.4219317"></rect>
                            <polygon id="Shape" points="10.9585797 113.365287 0 109.005084 0 85.0239651 10.9585797 80.6637618"></polygon>
                            <rect id="Rectangle-path" x="83.2852054" y="76.3035585" width="19.7254434" height="41.4219317"></rect>
                            <polygon id="Shape" points="103.010649 113.365287 113.969228 109.005084 113.969228 85.0239651 103.010649 80.6637618"></polygon>
                            <path d="M5.92201644,82.6716354 C2.1325396,75.0827015 0,66.5301627 0,57.4805606 C0,26.1764808 25.5137651,0.797917211 56.9846142,0.797917211 C88.4554632,0.797917211 113.969228,26.1764808 113.969228,57.4805606 C113.969228,66.5279826 111.836689,75.0805214 108.047212,82.6694553" id="Shape"></path>
                            <path d="M7.21293713,29.8717531 L15.9293914,34.8772665 C23.5280705,20.0024328 39.0585696,9.81045752 56.9846142,9.81045752 C74.9084671,9.81045752 90.4389662,20.0002527 98.039837,34.8729063 L106.7541,29.869573" id="Shape"></path>
                            <path d="M19.7254434,76.3035585 L19.7254434,117.72549" id="Shape"></path>
                            <path d="M94.243785,76.3035585 L94.243785,117.72549" id="Shape"></path>
                        </g>
                    </g>
                </g>
            </g>
        </g>
    </g>
</svg>