<?xml version="1.0" encoding="UTF-8"?>
<svg width="119px" height="119px" viewBox="0 0 119 119" version="1.1" xmlns="http://www.w3.org/2000/svg" xmlns:xlink="http://www.w3.org/1999/xlink">
    <!-- Generator: Sketch 52.1 (67048) - http://www.bohemiancoding.com/sketch -->
    <title>Nature Sports</title>
    <desc>Created with Sketch.</desc>
    <g id="Desktop-Desktop" stroke="none" stroke-width="1" fill="none" fill-rule="evenodd">
        <g id="Desktop---About-Me" transform="translate(-433.000000, -3584.000000)" fill="#FFFFFF">
            <g id="What-I-like" transform="translate(0.000000, 3179.000000)">
                <g id="Hobies" transform="translate(232.000000, 401.000000)">
                    <g id="Icons">
                        <g id="Nature-Sports" transform="translate(201.160964, 4.801743)">
                            <path d="M13.435889,50.3921192 C12.9004528,51.480045 12.5027002,52.6888515 12.3038239,53.9883184 C12.2120348,54.6380519 12.1508421,55.2877854 12.1508421,55.9375189 L12.6250856,85.6892678 L2.23762311,107.825536 C1.87046685,108.47527 1.61039784,109.245884 1.48801242,110.031608 C0.92197985,113.688247 3.46147731,117.088016 7.16363625,117.647089 C10.0243954,118.085281 12.7780674,116.649823 14.0937106,114.26243 L25.5367474,90.0560811 C25.7815182,89.4970082 25.9803945,88.907715 26.0721836,88.2579815 C26.1027799,87.9406698 26.1333763,87.6384682 26.1333763,87.3211565 L26.0415872,68.9472984 L43.6344913,76.5174488 L46.4646541,94.4984449 C47.0306867,97.1275989 49.2183261,99.2127901 52.0484889,99.6660925 C55.765946,100.194945 59.1927378,97.6866719 59.7587703,94.0602525 C59.8505594,93.4407392 59.8505594,92.8212259 59.7893667,92.2319328 L56.3319786,70.5338568 C55.9036296,68.4335556 54.5114955,66.635456 52.5380306,65.7288512 L36.8115042,58.8235443 L46.8318104,41.6131623 L51.7884199,47.8385156 C52.2932597,48.3975886 52.9510814,48.8660011 53.7006921,49.1682027 L72.6092394,54.6229418 C75.1181405,55.1517947 77.6882343,53.8523277 78.6826158,51.464935 C79.7840846,48.7602305 78.4684414,45.677774 75.7453658,44.5898482 L75.4852968,44.4991877 L59.039756,39.7244022 L46.6788286,25.0525138 C44.8277491,23.1033134 42.3494444,21.7282961 39.473387,21.2749937 C34.4555848,20.5345997 29.6978516,22.9068824 27.1736524,26.9110538 L13.435889,50.3921192 L13.435889,50.3921192 Z M45.6079562,20.0057469 C51.191791,20.0057469 55.7353497,15.5180529 55.7353497,10.0028734 C55.7353497,4.48769398 51.191791,0 45.6079562,0 C40.0241214,0 35.4805627,4.48769398 35.4805627,10.0028734 C35.4805627,15.5180529 40.0241214,20.0057469 45.6079562,20.0057469 L45.6079562,20.0057469 Z M25.4449583,21.5620852 L10.330359,47.3247728 C9.51955558,48.6846801 7.76026517,49.1530926 6.3834292,48.3522583 L1.45741606,45.5568934 C0.0499837351,44.7560591 -0.393663411,43.0183998 0.371245462,41.6584926 L15.501143,15.8958049 C16.2966482,14.5056775 18.0712368,14.0674852 19.4633709,14.8380993 L24.3740859,17.6636844 C25.76622,18.4342985 26.2251654,20.2021779 25.4449583,21.5620852 Z M66.5052666,101.962825 L67.6985244,93.0478771 L88.1215913,86.9736247 L90.5998961,79.4488045 L81.803444,59.8510298 L91.0588414,34.2243328 L101.507497,29.8877397 L107.749153,2.1154113 L118.626157,4.6236847 L118.717946,110.288479 C118.717946,113.053624 116.453816,115.305026 113.638951,115.305026 L34.2720067,115.305026 L33.9660431,109.774736 L66.5052666,101.962825 Z" id="Shape"></path>
                        </g>
                    </g>
                </g>
            </g>
        </g>
    </g>
</svg>