<?xml version="1.0" encoding="UTF-8"?>
<svg width="508px" height="468px" viewBox="0 0 508 468" version="1.1" xmlns="http://www.w3.org/2000/svg" xmlns:xlink="http://www.w3.org/1999/xlink">
    <!-- Generator: Sketch 52.1 (67048) - http://www.bohemiancoding.com/sketch -->
    <title>Shape</title>
    <desc>Created with Sketch.</desc>
    <g id="Page-1" stroke="none" stroke-width="1" fill="none" fill-rule="evenodd">
        <g id="lightbulb" transform="translate(6.000000, 6.000000)" fill="#FFFFFF" fill-rule="nonzero" stroke="#FFFFFF" stroke-width="12">
            <path d="M248,6 C167.501212,6 102,71.5012125 102,152 C102,169.415648 106.459855,185.671958 115.148421,202.510424 C121.815639,215.431512 128.554941,225.250573 144.585166,246.655231 C157.156192,263.454689 162.813007,271.515425 168.477787,281.419501 C176.01636,294.599642 180.533761,306.816906 181.961268,319.319353 L182,319.658574 L182,376 C182,400.878648 200.419939,421.9133 224.856198,425.436404 L230,426.178013 L230,440 C230,445.498792 234.501209,450 240,450 L256,450 C261.498796,450 266,445.498796 266,440 L266,426.178013 L271.143802,425.436404 C295.580061,421.9133 314,400.878648 314,376 L314.00006,327.160689 C314.063107,313.053841 318.150073,299.420128 325.992833,284.834315 C331.834538,273.970023 337.627861,265.585036 351.687475,246.666761 C367.583112,225.317874 374.311414,215.452671 380.937909,202.524851 C389.569124,185.685964 394,169.42383 394,152 C394,71.5012097 328.498793,6 248,6 Z M248,10 C326.313708,10 390,73.6862915 390,152 C390,168.539995 385.656299,184.305901 377.351662,200.606434 C371.067219,212.941685 364.082326,223.31186 350.435403,241.696969 C349.900533,242.417545 349.491546,242.967982 348.502431,244.298763 C347.505268,245.639895 347.146082,246.123111 346.633194,246.813742 C334.680096,262.909197 328.526468,271.895185 322.903642,282.202788 C315.752689,295.311708 311.55282,307.575154 310.347293,320.075945 L309.824219,325.5 L250,325.5 L250,296 C250,294.90746 249.09254,294 248,294 C246.90746,294 246,294.90746 246,296 L246,325.531248 L186.775215,325.531248 L186.24706,320.113394 C185.030825,307.637171 180.805556,295.381789 173.615747,282.275036 C167.957879,271.960956 161.745558,262.936707 149.756488,246.882235 C149.217315,246.160233 148.847773,245.665876 147.791726,244.253546 C146.865855,243.017602 146.455479,242.469624 145.94104,241.782059 C132.138175,223.33405 125.112403,212.991487 118.771447,200.654167 C110.385837,184.338655 106,168.559569 106,152 C106,73.6862915 169.686292,10 248,10 Z M246.958764,45.9685222 C226.63651,46.1468053 206.90449,52.140011 189.778906,63.3998159 C188.892023,63.9785449 188.64367,65.2035941 189.272995,66.1558096 C189.640411,66.7181793 190.234232,67.031248 190.906248,67.031248 C191.332297,67.031248 191.671438,66.9325567 192.015777,66.7056105 C214.016609,52.2374871 240.489825,46.911515 266.523493,51.6871861 C267.646742,51.8877657 268.682169,51.1718547 268.883536,50.053072 C269.083072,48.986331 268.382962,47.9727038 267.267712,47.771941 C260.53361,46.5074568 253.766681,45.9090679 246.958764,45.9685222 Z M302.000616,60.9361897 C301.233651,60.8376657 300.41572,61.220987 300.02368,61.8620097 C299.439685,62.8380029 299.743833,64.0569874 300.736965,64.6513673 C307.799095,68.9355021 314.328874,74.0606695 320.117641,79.8823593 C320.497291,80.26201 321.007944,80.468752 321.531248,80.468752 C322.084799,80.468752 322.595746,80.2627249 322.976111,79.8823593 C323.757966,79.1005051 323.757966,77.8369989 322.986396,77.0654043 C316.821228,70.9300185 310.038921,65.6127481 302.788,61.2386941 C302.525051,61.0809233 302.245823,60.9771873 302.000616,60.9361897 Z M40.3692275,66.0909994 L40.3074723,66.0925525 C39.4781478,66.1091379 38.7386549,66.6051389 38.4517129,67.307408 C38.0382212,68.3490897 38.5402585,69.5319371 39.5610251,69.9372531 L69.3203463,81.9668279 C69.5253051,82.0527778 69.7334526,82.093752 69.968752,82.093752 C70.7739486,82.093752 71.5444124,81.5854758 71.8383045,80.8581302 C72.2578664,79.8131872 71.7568083,78.6383752 70.7181948,78.2181714 L41.1133773,66.2387064 C40.8371235,66.1298803 40.5837439,66.0844993 40.3692275,66.0909994 Z M455.692536,66.0925525 L455.630782,66.0909995 C455.416259,66.0844992 455.162885,66.1298792 454.938061,66.2181717 L425.281546,78.2182764 C424.243199,78.6383731 423.742138,79.8131922 424.156828,80.8460459 C424.455588,81.5854758 425.226051,82.093752 426.031248,82.093752 C426.266547,82.093752 426.474695,82.0527778 426.751479,81.9372529 L456.473844,69.9232885 C457.459741,69.5319396 457.961779,68.3490899 457.569913,67.3611314 C457.261344,66.6051358 456.521857,66.1091379 455.692536,66.0925525 Z M8,150 C6.9074605,150 6,150.90746 6,152 C6,153.09254 6.9074605,154 8,154 L56,154 C57.0925395,154 58,153.09254 58,152 C58,150.90746 57.0925395,150 56,150 L8,150 Z M440,150 C438.90746,150 438,150.90746 438,152 C438,153.09254 438.90746,154 440,154 L488,154 C489.09254,154 490,153.09254 490,152 C490,150.90746 489.09254,150 488,150 L440,150 Z M216,182 C215.476695,182 214.966041,182.206742 214.586393,182.586393 C213.804538,183.368247 213.804538,184.631753 214.586393,185.413607 L230.586404,201.413618 C230.975989,201.803206 231.460103,202 232,202 C232.539901,202 233.024008,201.803208 233.413607,201.413607 C234.195462,200.631753 234.195462,199.368247 233.413607,198.586393 L217.413596,182.586382 C217.033959,182.206742 216.523305,182 216,182 Z M280,182 C279.476695,182 278.966041,182.206742 278.586393,182.586393 L246.586393,214.586393 C246.209759,214.963026 246,215.468915 246,216 L246,264 C246,265.09254 246.90746,266 248,266 C249.09254,266 250,265.09254 250,264 L250,216.827223 L281.413607,185.413607 C282.195462,184.631753 282.195462,183.368247 281.413596,182.586382 C281.033959,182.206742 280.523305,182 280,182 Z M70.0599006,221.906948 C69.7533397,221.913588 69.4834143,221.967331 69.2485211,222.062747 L39.52616,234.076713 C38.540261,234.468062 38.0382219,235.650914 38.4265127,236.630131 C38.7481476,237.414608 39.4945467,237.906248 40.312504,237.906248 C40.5849239,237.906248 40.8808408,237.851194 41.0619468,237.781829 L70.7184674,225.781718 C71.7568079,225.361627 72.2578666,224.186813 71.8511632,223.173633 C71.550165,222.436188 70.8381364,221.94462 70.0599006,221.906948 Z M426.051427,221.93491 L425.99618,221.93628 C425.196243,221.952439 424.457055,222.449753 424.155784,223.187792 C423.744991,224.20315 424.25306,225.396866 425.276766,225.81104 L455.007867,237.810587 C455.138848,237.865514 455.367312,237.906248 455.687504,237.906248 C456.505454,237.906248 457.251852,237.414608 457.548289,236.692588 C457.961276,235.652179 457.461163,234.476301 456.438983,234.062747 L426.741747,222.058803 C426.522101,221.969573 426.289469,221.927907 426.051427,221.93491 Z M186,330 L310,330 L310,350.234197 L186,365.734197 L186,330 Z M309.906248,377.22885 L309.906248,382.265445 L304.650456,382.922419 L223.379504,393.081249 C222.318424,393.210094 221.562162,394.186145 221.705066,395.298318 C221.828305,396.299634 222.66345,397.031248 223.656248,397.031248 C223.711286,397.031248 223.752797,397.031182 223.783952,397.031076 L310.066324,386.259244 L305.12922,396.251569 C297.410523,411.873628 281.624999,422 264,422 L232,422 C206.623793,422 186,401.37621 186,376 L186,369.765811 L310,354.265811 L310,361.062504 L310,376.00023 C310,376.00058 310,376.00058 310,376.001161 C309.999951,376.318547 309.980864,376.609464 309.948161,376.901872 C309.934237,377.026376 309.924298,377.103101 309.906248,377.22885 Z M244,438 L246,438 L246,434 L244,434 L242,436 L244,438 Z M250,438 L252,438 L254,436 L252,434 L250,434 L250,438 Z M234,426 L262,426 L262,446 L234,446 L234,426 Z" id="Shape"></path>
        </g>
    </g>
</svg>