<?xml version="1.0" encoding="UTF-8"?>
<svg width="44px" height="32px" viewBox="0 0 44 32" version="1.1" xmlns="http://www.w3.org/2000/svg" xmlns:xlink="http://www.w3.org/1999/xlink">
    <!-- Generator: Sketch 52.1 (67048) - http://www.bohemiancoding.com/sketch -->
    <title>Group 43</title>
    <desc>Created with Sketch.</desc>
    <g id="Page-1" stroke="none" stroke-width="1" fill="none" fill-rule="evenodd">
        <g id="40-Tool-Icons" transform="translate(-534.000000, -403.000000)">
            <g id="Group-43" transform="translate(534.000000, 403.000000)">
                <g id="Group-30" transform="translate(10.000000, 0.000000)" fill="#FFFFFF">
                    <path d="M3.999,12 C3.999,12.552 4.446,13 4.999,13 C5.551,13 5.999,12.552 5.999,12 C5.999,10.344 6.67,8.85 7.759,7.76 C8.849,6.671 10.343,6 11.999,6 C12.551,6 12.999,5.552 12.999,5 C12.999,4.448 12.551,4 11.999,4 C7.585,4.002 4.001,7.586 3.999,12 Z" id="Fill-252"></path>
                    <path d="M7.999,26 L15.999,26 C16.551,26 16.999,25.552 16.999,25 C16.999,24.448 16.551,24 15.999,24 L7.999,24 C7.446,24 6.999,24.448 6.999,25 C6.999,25.552 7.446,26 7.999,26" id="Fill-254"></path>
                    <path d="M18.346,19.707 C16.954,20.839 16,22.517 16,24.42 L16,28 L14.107,28 L13.875,28.674 C13.615,29.433 12.862,30.004 12,30 C11.14,30.004 10.38,29.434 10.101,28.66 L9.862,28 L8,28 L8,24.42 C7.999,22.507 7.02,20.836 5.633,19.705 L5.638,19.71 C3.415,17.867 2.001,15.111 2,12 C2,9.245 3.121,6.75 4.935,4.935 C6.75,3.121 9.245,2 12,2 C14.756,2 17.25,3.121 19.066,4.935 C20.879,6.75 22,9.245 22,12 C21.999,15.111 20.586,17.865 18.346,19.707 L18.346,19.707 Z M0,12 C0,15.728 1.705,19.052 4.362,21.25 L4.368,21.254 C5.38,22.084 6.002,23.213 6,24.42 L6,28 C5.999,28.544 6.219,29.055 6.583,29.417 C6.945,29.781 7.456,30.001 8,30 L8.538,30 C9.236,31.19 10.521,31.996 12,32 C13.474,31.997 14.761,31.194 15.449,30 L16,30 C16.544,30.001 17.056,29.781 17.417,29.417 C17.781,29.055 18.001,28.544 18,28 L18,24.42 C18,23.203 18.606,22.08 19.613,21.254 C22.294,19.055 24.001,15.728 24,12 C23.998,5.385 18.615,0.002 12,0 C5.385,0.002 0.003,5.385 0,12 Z" id="Fill-255"></path>
                </g>
                <g id="Group-42" transform="translate(35.000000, 4.000000)" stroke="#FFFFFF" stroke-linecap="round" stroke-width="2">
                    <path d="M2.5,6.5 L8,6.5" id="Line"></path>
                    <path d="M1.5,1.5 L5.5,1.5" id="Line" transform="translate(3.500000, 1.500000) rotate(-16.000000) translate(-3.500000, -1.500000) "></path>
                    <path d="M2.54097292,11.1697242 L6.54097292,11.1697242" id="Line" transform="translate(4.540973, 11.169724) scale(1, -1) rotate(-16.000000) translate(-4.540973, -11.169724) "></path>
                </g>
                <g id="Group-41" transform="translate(4.500000, 11.500000) scale(-1, 1) translate(-4.500000, -11.500000) translate(0.000000, 5.000000)" stroke="#FFFFFF" stroke-linecap="round" stroke-width="2">
                    <path d="M2.5,6.5 L8,6.5" id="Line"></path>
                    <path d="M1.5,1.5 L5.5,1.5" id="Line" transform="translate(3.500000, 1.500000) rotate(-16.000000) translate(-3.500000, -1.500000) "></path>
                    <path d="M1.54097292,11.1697242 L5.54097292,11.1697242" id="Line" transform="translate(3.540973, 11.169724) scale(1, -1) rotate(-16.000000) translate(-3.540973, -11.169724) "></path>
                </g>
            </g>
        </g>
    </g>
</svg>