<?xml version="1.0" encoding="UTF-8"?>
<svg width="133px" height="88px" viewBox="0 0 133 88" version="1.1" xmlns="http://www.w3.org/2000/svg" xmlns:xlink="http://www.w3.org/1999/xlink">
    <!-- Generator: Sketch 52.1 (67048) - http://www.bohemiancoding.com/sketch -->
    <title>Watching</title>
    <desc>Created with Sketch.</desc>
    <g id="Desktop-Desktop" stroke="none" stroke-width="1" fill="none" fill-rule="evenodd">
        <g id="Desktop---About-Me" transform="translate(-1076.000000, -3604.000000)" fill="#FFFFFF">
            <g id="What-I-like" transform="translate(0.000000, 3179.000000)">
                <g id="Hobies" transform="translate(232.000000, 401.000000)">
                    <g id="Icons">
                        <g id="Watching" transform="translate(844.216507, 24.422658)">
                            <path d="M4.71102961,4.57175926 L4.71102961,20.5729167 L18.8441185,20.5729167 L18.8441185,4.57175926 L4.71102961,4.57175926 Z M2.35551481,0 L21.1996333,0 L110.709196,0 L129.553314,0 L131.908829,0 L131.908829,86.8634259 L129.553314,86.8634259 L110.709196,86.8634259 L108.353681,86.8634259 L108.353681,4.57175926 L23.5551481,4.57175926 L23.5551481,82.2916667 L108.2252,82.2916667 L108.2252,86.8634259 L22.4844595,86.8634259 L21.1996333,86.8634259 L2.35551481,86.8634259 L0,86.8634259 L0,0 L2.35551481,0 Z M4.71102961,82.2916667 L18.8441185,82.2916667 L18.8441185,66.2905093 L4.71102961,66.2905093 L4.71102961,82.2916667 Z M4.71102961,61.71875 L18.8441185,61.71875 L18.8441185,45.7175926 L4.71102961,45.7175926 L4.71102961,61.71875 Z M4.71102961,41.1458333 L18.8441185,41.1458333 L18.8441185,25.1446759 L4.71102961,25.1446759 L4.71102961,41.1458333 Z M127.1978,4.57175926 L113.064711,4.57175926 L113.064711,20.5729167 L127.1978,20.5729167 L127.1978,4.57175926 Z M127.1978,25.1446759 L113.064711,25.1446759 L113.064711,41.1458333 L127.1978,41.1458333 L127.1978,25.1446759 Z M127.1978,45.7175926 L113.064711,45.7175926 L113.064711,61.71875 L127.1978,61.71875 L127.1978,45.7175926 Z M127.1978,66.2905093 L113.064711,66.2905093 L113.064711,82.2916667 L127.1978,82.2916667 L127.1978,66.2905093 Z M88.3319089,43.431713 L49.4658109,65.2070604 L49.4658109,21.6563655 L88.3319089,43.431713 Z M78.909746,43.431713 L54.1768405,29.5747106 L54.1768405,57.2887153 L78.909746,43.431713 Z" id="Rectangle-path"></path>
                        </g>
                    </g>
                </g>
            </g>
        </g>
    </g>
</svg>