<?xml version="1.0" encoding="UTF-8"?>
<svg width="34px" height="34px" viewBox="0 0 34 34" version="1.1" xmlns="http://www.w3.org/2000/svg" xmlns:xlink="http://www.w3.org/1999/xlink">
    <!-- Generator: Sketch 52.1 (67048) - http://www.bohemiancoding.com/sketch -->
    <title>Group 29</title>
    <desc>Created with Sketch.</desc>
    <g id="Page-1" stroke="none" stroke-width="1" fill="none" fill-rule="evenodd">
        <g id="40-Tool-Icons" transform="translate(-476.000000, -402.000000)">
            <g id="Group-29" transform="translate(476.000000, 402.000000)">
                <g id="Group-25" transform="translate(0.000000, 2.000000)" fill="#FFFFFF">
                    <path d="M19.815,8 C19.401,6.839 18.304,6.003 17,6 L15,6 C14.737,6 14.479,6.107 14.293,6.293 C14.107,6.479 14,6.737 14,7 L14,29 C13.999,29.543 13.544,29.999 13,30 L11,30 C10.457,29.999 10.001,29.543 10,29 L10,9 C9.996,7.343 8.657,6.004 7,6 L2.101,6 C2.562,3.713 4.574,2.001 7,2 L14,2 L14,3 C14,3.263 14.107,3.521 14.293,3.707 C14.479,3.893 14.737,4 15,4 L17,4 C18.304,3.997 19.401,3.161 19.815,2 L22,2 L22,8 L19.815,8 Z M23,-2.70503379e-14 L19,-2.70503379e-14 C18.737,-2.70503379e-14 18.479,0.107 18.293,0.293 C18.107,0.479 18,0.737 18,1 C17.999,1.543 17.544,1.999 17,2 L16,2 L16,1 C16,0.737 15.894,0.479 15.707,0.293 C15.521,0.107 15.263,-2.70503379e-14 15,-2.70503379e-14 L7,-2.70503379e-14 C5.069,-0.001 3.312,0.783 2.048,2.048 C0.783,3.311 0,5.068 0,7 C0,7.263 0.107,7.521 0.293,7.707 C0.479,7.893 0.737,8 1,8 L7,8 C7.544,8.001 7.999,8.456 8,9 L8,29 C8.004,30.657 9.344,31.996 11,32 L13,32 C14.657,31.996 15.996,30.657 16,29 L16,8 L17,8 C17.544,8.001 17.999,8.456 18,9 C18,9.263 18.107,9.521 18.293,9.707 C18.479,9.893 18.737,10 19,10 L23,10 C23.263,10 23.521,9.893 23.707,9.707 C23.893,9.521 24,9.263 24,9 L24,1 C24,0.737 23.893,0.479 23.707,0.293 C23.521,0.107 23.263,-2.70503379e-14 23,-2.70503379e-14 Z" id="Fill-174"></path>
                </g>
                <path d="M27.5,6.7 L33,6.7" id="Line" stroke="#FFFFFF" stroke-width="2" stroke-linecap="round"></path>
                <path d="M27.5,1.5 L31.5,1.5" id="Line" stroke="#FFFFFF" stroke-width="2" stroke-linecap="round" transform="translate(29.500000, 1.500000) rotate(-16.000000) translate(-29.500000, -1.500000) "></path>
                <path d="M27.5,12.5 L31.5,12.5" id="Line" stroke="#FFFFFF" stroke-width="2" stroke-linecap="round" transform="translate(29.500000, 12.500000) scale(1, -1) rotate(-16.000000) translate(-29.500000, -12.500000) "></path>
            </g>
        </g>
    </g>
</svg>