<?xml version="1.0" encoding="UTF-8"?>
<svg width="106px" height="133px" viewBox="0 0 106 133" version="1.1" xmlns="http://www.w3.org/2000/svg" xmlns:xlink="http://www.w3.org/1999/xlink">
    <!-- Generator: Sketch 52.1 (67048) - http://www.bohemiancoding.com/sketch -->
    <title>Traveling</title>
    <desc>Created with Sketch.</desc>
    <g id="Desktop-Desktop" stroke="none" stroke-width="1" fill="none" fill-rule="evenodd">
        <g id="Desktop---About-Me" transform="translate(-232.000000, -3580.000000)">
            <g id="What-I-like" transform="translate(0.000000, 3179.000000)">
                <g id="Hobies" transform="translate(232.000000, 401.000000)">
                    <g id="Icons">
                        <g id="Traveling">
                            <path d="M58.3175876,96.9054543 C84.3906618,96.9054543 105.527063,76.1972655 105.527063,50.6524173 C105.527063,25.107569 84.3906618,4.39938025 58.3175876,4.39938025 C32.2445134,4.39938025 11.1081119,25.107569 11.1081119,50.6524173 C11.1081119,76.1972655 32.2445134,96.9054543 58.3175876,96.9054543 L58.3175876,96.9054543 Z M58.3175876,91.4639206 C81.3232428,91.4639206 99.9730074,73.1919894 99.9730074,50.6524173 C99.9730074,28.1128452 81.3232428,9.84091402 58.3175876,9.84091402 C35.3119325,9.84091402 16.6621679,28.1128452 16.6621679,50.6524173 C16.6621679,73.1919894 35.3119325,91.4639206 58.3175876,91.4639206 L58.3175876,91.4639206 Z M38.8783917,126.83389 L38.8783917,132.275424 L77.7567835,132.275424 L77.7567835,126.83389 L38.8783917,126.83389 L38.8783917,126.83389 Z M78.4829124,71.1202389 L94.752117,95.267902 C84.7703093,103.102603 72.1024935,107.788522 58.3175876,107.788522 C26.1096726,107.788522 0,82.207818 0,50.6524173 C0,28.8631103 12.4491832,9.92255841 30.7590395,0.285796218 L33.8332595,4.84872573 C17.0217264,13.4926372 5.55405596,30.7604496 5.55405596,50.6524173 C5.55405596,79.2025419 29.1770916,102.346988 58.3175876,102.346988 C70.9656949,102.346988 82.5743716,97.9868114 91.6631482,90.7169302 L78.4829124,71.1202389 L78.4829124,71.1202389 Z M55.5405596,107.788522 L55.5405596,126.83389 L61.0946156,126.83389 L61.0946156,107.788522 L55.5405596,107.788522 L55.5405596,107.788522 Z" id="globe_L-2" fill="#FFFFFF"></path>
                            <path d="M52.3078719,53.021399 L39.7979486,58.8061055 C38.2286552,59.5317614 36.3606233,58.8528605 35.614037,57.2651855 C34.8726198,55.6885031 35.5314246,53.8277864 37.1130393,53.0964329 L49.4596558,47.387241 L54.6202954,27.0190221 L57.4537652,25.7087989 L58.8350462,43.0519723 L70.8712129,37.4863353 L72.7971373,32.0807843 L78.9365764,45.1367884 L73.5561222,43.196008 L61.5950148,48.7269366 L73.8844836,60.6500246 L71.0510138,61.9602478 L52.3078719,53.021399 L52.3078719,53.021399 Z" id="airplane_mode_L" fill="#FFFFFF"></path>
                            <path d="M81.1136275,35.6557657 C81.1136275,35.6557657 111.08112,22.7483401 98.5844929,14.5860395" id="Path-197" stroke="#FFFFFF" stroke-width="2.10526316" stroke-linecap="round"></path>
                        </g>
                    </g>
                </g>
            </g>
        </g>
    </g>
</svg>