<?xml version="1.0" encoding="UTF-8"?>
<svg width="1121px" height="438px" viewBox="0 0 1121 438" version="1.1" xmlns="http://www.w3.org/2000/svg" xmlns:xlink="http://www.w3.org/1999/xlink">
    <!-- Generator: Sketch 52.1 (67048) - http://www.bohemiancoding.com/sketch -->
    <title>Group 13</title>
    <desc>Created with Sketch.</desc>
    <g id="Desktop-Desktop" stroke="none" stroke-width="1" fill="none" fill-rule="evenodd">
        <g id="THE-DESKTOP-CS" transform="translate(-137.000000, -22807.000000)">
            <g id="Group-13" transform="translate(137.000000, 22807.000000)">
                <rect id="Rectangle" fill="#F2F2F2" x="0" y="0" width="1121" height="438"></rect>
                <text id="FileWeave" font-family="Signika-Semibold, Signika" font-size="122.29" font-weight="500" line-spacing="164.571429" letter-spacing="-2.24415595">
                    <tspan x="383" y="253" fill="#063A6B">File</tspan>
                    <tspan x="570.421116" y="253" fill="#5AD993">Weave</tspan>
                </text>
                <g id="Option-2" transform="translate(249.524678, 216.793324) rotate(47.000000) translate(-249.524678, -216.793324) translate(135.524678, 102.793324)">
                    <path d="M82.4520173,81.7089711 L82.4520173,81.7089711 C92.871685,81.7089711 101.318495,90.1557807 101.318495,100.575448 L101.318495,208.569767 C101.318495,218.989434 92.871685,227.436244 82.4520173,227.436244 L82.4520173,227.436244 C72.0323496,227.436244 63.58554,218.989434 63.58554,208.569767 L63.58554,100.575448 C63.58554,90.1557807 72.0323496,81.7089711 82.4520173,81.7089711 Z" id="Rectangle-5" fill="#063A6B"></path>
                    <path d="M113.180208,-30.5419533 L113.180208,-30.5419533 C123.599876,-30.5419533 132.046685,-22.0951437 132.046685,-11.675476 L132.046685,50.7790694 C132.046685,61.1987371 123.599876,69.6455467 113.180208,69.6455467 L113.180208,69.6455467 C102.76054,69.6455467 94.3137308,61.1987371 94.3137308,50.7790694 L94.3137308,-11.675476 C94.3137308,-22.0951437 102.76054,-30.5419533 113.180208,-30.5419533 Z" id="Rectangle-5" fill="#063A6B" transform="translate(113.180208, 19.551797) rotate(90.000000) translate(-113.180208, -19.551797) "></path>
                    <path d="M113.326183,158.176595 L113.326183,158.176595 C123.745851,158.176595 132.19266,166.623405 132.19266,177.043073 L132.19266,239.497618 C132.19266,249.917286 123.745851,258.364095 113.326183,258.364095 L113.326183,258.364095 C102.906515,258.364095 94.4597056,249.917286 94.4597056,239.497618 L94.4597056,177.043073 C94.4597056,166.623405 102.906515,158.176595 113.326183,158.176595 Z" id="Rectangle-5" fill="#063A6B" transform="translate(113.326183, 208.270345) rotate(90.000000) translate(-113.326183, -208.270345) "></path>
                    <path d="M189.931715,100.039202 L38.3494219,100.039202 L38.3494219,125.879759 L189.931715,125.879759 L189.931715,100.039202 Z M212.677571,63.5050035 C221.407747,65.2335347 227.99,72.9337641 227.99,82.1713611 L227.99,143.340765 C227.99,150.231022 224.327923,156.265956 218.843936,159.605398 C215.615823,162.17106 211.529905,163.703798 207.085997,163.703798 L19.2031564,163.703798 C8.75833624,163.703798 0.291136522,155.236599 0.291136522,144.791778 C0.291136522,144.549223 0.295702772,144.307734 0.304753998,144.067393 C0.295702688,143.826304 0.291136522,143.584068 0.291136522,143.340765 L0.291136522,82.1713611 C0.291136522,81.9965014 0.293495023,81.8221926 0.298181947,81.6484647 C0.293495054,81.4752747 0.291136522,81.3015037 0.291136522,81.1271819 C0.291136522,70.6823617 8.75833624,62.215162 19.2031564,62.215162 L205.79896,62.215162 C208.225718,62.215162 210.54572,62.6722405 212.677571,63.5050035 Z" id="Combined-Shape" fill="#5AD993"></path>
                    <path d="M127.076489,209.133378 L127.076489,19.1674693 C127.076489,8.74780162 135.523298,0.300992024 145.942966,0.300992024 L145.942966,0.300992024 C156.362633,0.300992024 164.809443,8.74780162 164.809443,19.1674693 L164.809443,209.133378 C164.809443,219.553046 156.362633,227.999856 145.942966,227.999856 L145.942966,227.999856 C135.523298,227.999856 127.076489,219.553046 127.076489,209.133378 Z" id="Rectangle-5" fill="#063A6B"></path>
                    <path d="M82.5074659,8.59296516 L82.5074659,8.59296516 C92.9271336,8.59296516 101.373943,17.0397748 101.373943,27.4594424 L101.373943,100.323079 C101.373943,110.742746 92.9271336,119.189556 82.5074659,119.189556 L82.5074659,119.189556 C72.0877982,119.189556 63.6409886,110.742746 63.6409886,100.323079 L63.6409886,27.4594424 C63.6409886,17.0397748 72.0877982,8.59296516 82.5074659,8.59296516 Z" id="Rectangle-5" fill="#063A6B"></path>
                    <polygon id="Rectangle-5" fill="#5AD993" points="60.6286005 131.249524 98.361555 131.249524 98.361555 140.357479 60.6286005 140.357479"></polygon>
                    <path d="M126.726261,61.8877779 L206.095579,61.8877779 C216.515247,61.8877779 224.962056,70.3345875 224.962056,80.7542552 L224.962056,80.7542552 C224.962056,91.1739229 216.515247,99.6207325 206.095579,99.6207325 L126.726261,99.6207325 C116.306593,99.6207325 107.859784,91.1739229 107.859784,80.7542552 L107.859784,80.7542552 C107.859784,70.3345875 116.306593,61.8877779 126.726261,61.8877779 Z" id="Rectangle-5" fill="#5AD993"></path>
                </g>
            </g>
        </g>
    </g>
</svg>