<?xml version="1.0" encoding="UTF-8"?>
<svg width="540px" height="444px" viewBox="0 0 540 444" version="1.1" xmlns="http://www.w3.org/2000/svg" xmlns:xlink="http://www.w3.org/1999/xlink">
    <!-- Generator: Sketch 52.1 (67048) - http://www.bohemiancoding.com/sketch -->
    <title>Group 7</title>
    <desc>Created with Sketch.</desc>
    <g id="Desktop-Desktop" stroke="none" stroke-width="1" fill="none" fill-rule="evenodd">
        <g id="THE-DESKTOP-CS" transform="translate(-718.000000, -22202.000000)">
            <g id="Group-7" transform="translate(718.000000, 22202.000000)">
                <rect id="Rectangle" fill="#F2F2F2" x="0" y="0.602426715" width="540" height="443.017699"></rect>
                <g id="Option-2" transform="translate(270.490909, 229.478533) rotate(47.000000) translate(-270.490909, -229.478533) translate(145.309091, 104.726321)">
                    <path d="M89.7120259,88.9295595 L90.6007562,88.9295595 C95.1014086,88.9295595 98.6718116,89.7794797 101.656021,91.3754523 C104.64023,92.9714248 106.982255,95.3134495 108.578227,98.2976587 C110.1742,101.281868 111.02412,104.852271 111.02412,109.352923 L111.02412,228.721808 C111.02412,233.22246 110.1742,236.792863 108.578227,239.777072 C106.982255,242.761282 104.64023,245.103306 101.656021,246.699279 C98.6718116,248.295251 95.1014086,249.145172 90.6007562,249.145172 L89.7120259,249.145172 C85.2113735,249.145172 81.6409705,248.295251 78.6567614,246.699279 C75.6725522,245.103306 73.3305274,242.761282 71.7345549,239.777072 C70.1385824,236.792863 69.2886622,233.22246 69.2886622,228.721808 L69.2886622,109.352923 C69.2886622,104.852271 70.1385824,101.281868 71.7345549,98.2976587 C73.3305274,95.3134495 75.6725522,92.9714248 78.6567614,91.3754523 C81.6409705,89.7794797 85.2113735,88.9295595 89.7120259,88.9295595 Z" id="Rectangle-5" fill="#063A6B"></path>
                    <path d="M123.618999,-33.3713898 L124.392581,-33.3713898 C128.849706,-33.3713898 132.427364,-32.5214696 135.411573,-30.9254971 C138.395782,-29.3295246 140.737807,-26.9874998 142.333779,-24.0032907 C143.929752,-21.0190816 144.779672,-17.4414241 144.779672,-12.9842984 L144.779672,55.7304318 C144.779672,60.1875575 143.929752,63.765215 142.333779,66.7494241 C140.737807,69.7336332 138.395782,72.075658 135.411573,73.6716305 C132.427364,75.267603 128.849706,76.1175233 124.392581,76.1175233 L123.618999,76.1175233 C119.161874,76.1175233 115.584216,75.267603 112.600007,73.6716305 C109.615798,72.075658 107.273773,69.7336332 105.677801,66.7494241 C104.081828,63.765215 103.231908,60.1875575 103.231908,55.7304318 L103.231908,-12.9842984 C103.231908,-17.4414241 104.081828,-21.0190816 105.677801,-24.0032907 C107.273773,-26.9874998 109.615798,-29.3295246 112.600007,-30.9254971 C115.584216,-32.5214696 119.161874,-33.3713898 123.618999,-33.3713898 Z" id="Rectangle-5" fill="#063A6B" transform="translate(124.005790, 21.373067) rotate(90.000000) translate(-124.005790, -21.373067) "></path>
                    <path d="M123.646497,173.627108 L124.419741,173.627108 C128.876739,173.627108 132.454418,174.477028 135.438627,176.073001 C138.422836,177.668973 140.764861,180.010998 142.360833,182.995207 C143.956806,185.979416 144.806726,189.557095 144.806726,194.014093 L144.806726,262.729036 C144.806726,267.186034 143.956806,270.763713 142.360833,273.747922 C140.764861,276.732131 138.422836,279.074156 135.438627,280.670128 C132.454418,282.266101 128.876739,283.116021 124.419741,283.116021 L123.646497,283.116021 C119.189499,283.116021 115.61182,282.266101 112.627611,280.670128 C109.643402,279.074156 107.301377,276.732131 105.705404,273.747922 C104.109432,270.763713 103.259512,267.186034 103.259512,262.729036 L103.259512,194.014093 C103.259512,189.557095 104.109432,185.979416 105.705404,182.995207 C107.301377,180.010998 109.643402,177.668973 112.627611,176.073001 C115.61182,174.477028 119.189499,173.627108 123.646497,173.627108 Z" id="Rectangle-5" fill="#063A6B" transform="translate(124.033119, 228.371564) rotate(90.000000) translate(-124.033119, -228.371564) "></path>
                    <path d="M207.970614,109.553298 L41.7425166,109.553298 L41.7425166,137.937446 L207.970614,137.937446 L207.970614,109.553298 Z M234.65995,69.4990224 C236.780836,69.9057571 238.652861,70.5690791 240.337973,71.4702866 C243.322182,73.0662591 245.664206,75.4082839 247.260179,78.392493 C248.856151,81.3767021 249.706072,84.9471052 249.706072,89.4477575 L249.706072,157.596105 C249.706072,162.096758 248.856151,165.667161 247.260179,168.65137 C245.729464,171.513559 243.512459,173.785006 240.700805,175.37407 C239.913357,175.996344 239.063283,176.552224 238.153525,177.038768 C235.169316,178.63474 231.591637,179.484661 227.134639,179.484661 L20.3940441,179.484661 C15.9370459,179.484661 12.3593672,178.63474 9.37515806,177.038768 C6.39094893,175.442795 4.04892414,173.100771 2.45295164,170.116561 C0.856979132,167.132352 0.00705890826,163.554674 0.00705890826,159.097675 L0.00705890826,158.324431 C0.00705890826,158.202969 0.00769012556,158.082159 0.00895045793,157.961997 C0.00769012556,157.840719 0.00705890826,157.718758 0.00705890826,157.596105 L0.00705890826,89.4477575 C0.00705890826,89.4005214 0.00715252974,89.3533878 0.00733965261,89.3063562 C0.00715252974,89.2597717 0.00705890826,89.2130906 0.00705890826,89.1663126 L0.00705890826,88.3930687 C0.00705890826,83.9360705 0.856979132,80.3583917 2.45295164,77.3741826 C4.04892414,74.3899735 6.39094893,72.0479487 9.37515806,70.4519762 C12.3593672,68.8560037 15.9370459,68.0060834 20.3940441,68.0060834 L225.723249,68.0060834 C229.18905,68.0060834 232.123148,68.5200093 234.65995,69.4990224 Z" id="Combined-Shape" fill="#5AD993"></path>
                    <path d="M138.08938,228.721808 L138.08938,20.5732326 C138.08938,16.0725802 138.9393,12.5021772 140.535273,9.51796803 C142.131245,6.5337589 144.47327,4.19173412 147.457479,2.59576161 C150.441688,0.999789105 154.012091,0.149868881 158.512744,0.149868881 L159.401474,0.149868881 C163.902126,0.149868881 167.472529,0.999789105 170.456738,2.59576161 C173.440948,4.19173412 175.782972,6.5337589 177.378945,9.51796803 C178.974917,12.5021772 179.824838,16.0725802 179.824838,20.5732326 L179.824838,228.721808 C179.824838,233.22246 178.974917,236.792863 177.378945,239.777072 C175.782972,242.761282 173.440948,245.103306 170.456738,246.699279 C167.472529,248.295251 163.902126,249.145172 159.401474,249.145172 L158.512744,249.145172 C154.012091,249.145172 150.441688,248.295251 147.457479,246.699279 C144.47327,245.103306 142.131245,242.761282 140.535273,239.777072 C138.9393,236.792863 138.08938,233.22246 138.08938,228.721808 Z" id="Rectangle-5" fill="#063A6B"></path>
                    <path d="M89.7120259,9.25945312 L90.6007562,9.25945312 C95.1014086,9.25945312 98.6718116,10.1093733 101.656021,11.7053459 C104.64023,13.3013184 106.982255,15.6433431 108.578227,18.6275523 C110.1742,21.6117614 111.02412,25.1821645 111.02412,29.6828168 L111.02412,110.297213 C111.02412,114.797865 110.1742,118.368268 108.578227,121.352477 C106.982255,124.336686 104.64023,126.678711 101.656021,128.274684 C98.6718116,129.870656 95.1014086,130.720576 90.6007562,130.720576 L89.7120259,130.720576 C85.2113735,130.720576 81.6409705,129.870656 78.6567614,128.274684 C75.6725522,126.678711 73.3305274,124.336686 71.7345549,121.352477 C70.1385824,118.368268 69.2886622,114.797865 69.2886622,110.297213 L69.2886622,29.6828168 C69.2886622,25.1821645 70.1385824,21.6117614 71.7345549,18.6275523 C73.3305274,15.6433431 75.6725522,13.3013184 78.6567614,11.7053459 C81.6409705,10.1093733 85.2113735,9.25945312 89.7120259,9.25945312 Z" id="Rectangle-5" fill="#063A6B"></path>
                    <polygon id="Rectangle-5" fill="#5AD993" points="65.6381169 144.031428 107.373575 144.031428 107.373575 153.807244 65.6381169 153.807244"></polygon>
                    <path d="M138.550491,68.0060834 L225.723249,68.0060834 C230.180247,68.0060834 233.757926,68.8560037 236.742135,70.4519762 C239.726344,72.0479487 242.068369,74.3899735 243.664342,77.3741826 C245.260314,80.3583917 246.110234,83.9360705 246.110234,88.3930687 L246.110234,89.1663126 C246.110234,93.6233108 245.260314,97.2009896 243.664342,100.185199 C242.068369,103.169408 239.726344,105.511433 236.742135,107.107405 C233.757926,108.703378 230.180247,109.553298 225.723249,109.553298 L138.550491,109.553298 C134.093492,109.553298 130.515814,108.703378 127.531604,107.107405 C124.547395,105.511433 122.205371,103.169408 120.609398,100.185199 C119.013426,97.2009896 118.163505,93.6233108 118.163505,89.1663126 L118.163505,88.3930687 C118.163505,83.9360705 119.013426,80.3583917 120.609398,77.3741826 C122.205371,74.3899735 124.547395,72.0479487 127.531604,70.4519762 C130.515814,68.8560037 134.093492,68.0060834 138.550491,68.0060834 Z" id="Rectangle-5" fill="#5AD993"></path>
                </g>
            </g>
        </g>
    </g>
</svg>