<?xml version="1.0" encoding="UTF-8"?>
<svg width="119px" height="119px" viewBox="0 0 119 119" version="1.1" xmlns="http://www.w3.org/2000/svg" xmlns:xlink="http://www.w3.org/1999/xlink">
    <!-- Generator: Sketch 52.1 (67048) - http://www.bohemiancoding.com/sketch -->
    <title>desktop [#232]</title>
    <desc>Created with Sketch.</desc>
    <g id="Desktop-Desktop" stroke="none" stroke-width="1" fill="none" fill-rule="evenodd">
        <g id="THE-DESKTOP-CS" transform="translate(-680.000000, -1539.000000)" fill="#161209">
            <g id="Group" transform="translate(571.000000, 1539.000000)">
                <path d="M216.981481,77.8641975 C216.981481,81.1080494 214.328222,83.7407407 211.059028,83.7407407 L128.144676,83.7407407 C124.875481,83.7407407 122.222222,81.1080494 122.222222,77.8641975 L122.222222,19.0987654 C122.222222,15.8549136 124.875481,13.2222222 128.144676,13.2222222 L211.059028,13.2222222 C214.328222,13.2222222 216.981481,15.8549136 216.981481,19.0987654 L216.981481,77.8641975 Z M216.044684,0 L120.877993,0 L120.854201,0 C114.287699,0 109,5.44425 109,12.019 L109.041635,12.138 L109.041635,83.538 L109,83.419 C109,89.99375 114.287699,95.2 120.854201,95.2 L120.877993,95.2 L156.54171,95.2 C159.830909,95.2 162.572899,97.9846 162.572899,101.269 L162.572899,101.2095 C162.572899,104.4939 159.830909,107.1 156.54171,107.1 L138.697956,107.1 C135.414705,107.1 132.833308,109.8846 132.833308,113.169 L132.833308,113.1095 C132.833308,116.3939 135.414705,119 138.697956,119 L198.177138,119 C201.466337,119 204.208327,116.4534 204.208327,113.169 L204.208327,113.1095 C204.208327,109.8251 201.466337,107.1 198.177138,107.1 L180.333383,107.1 C177.050132,107.1 174.468736,104.5534 174.468736,101.269 L174.468736,101.2095 C174.468736,97.9251 177.050132,95.2 180.333383,95.2 L216.044684,95.2 L216.08632,95.319 C222.640926,95.319 228,90.1187 228,83.55585 L228,83.538 L228,12.138 L228,12.12015 C228,5.5573 222.640926,0.119 216.08632,0.119 L216.044684,0 Z" id="desktop-[#232]"></path>
            </g>
        </g>
    </g>
</svg>