<?xml version="1.0" encoding="UTF-8"?>
<svg width="429px" height="110px" viewBox="0 0 429 110" version="1.1" xmlns="http://www.w3.org/2000/svg" xmlns:xlink="http://www.w3.org/1999/xlink">
    <!-- Generator: Sketch 52.1 (67048) - http://www.bohemiancoding.com/sketch -->
    <title>Group 13</title>
    <desc>Created with Sketch.</desc>
    <g id="Desktop-Desktop" stroke="none" stroke-width="1" fill="none" fill-rule="evenodd">
        <g id="THE-DESKTOP-CS" transform="translate(-821.000000, -1278.000000)">
            <g id="Group-13" transform="translate(795.000000, 1253.000000)">
                <text id="FileWeave" font-family="Signika-Semibold, Signika" font-size="73.374" font-weight="500" line-spacing="98.7428571" letter-spacing="-1.34649353">
                    <tspan x="147" y="102.627869" fill="#063A6B">File</tspan>
                    <tspan x="259.45267" y="102.627869" fill="#5AD993">Weave</tspan>
                </text>
                <g id="Option-2" transform="translate(81.000000, 81.127869) rotate(47.000000) translate(-81.000000, -81.127869) translate(24.000000, 23.627869)">
                    <path d="M41.0459824,41.0328894 L41.0459824,41.0328894 C46.2330659,41.0328894 50.4380279,45.2378514 50.4380279,50.4249349 L50.4380279,104.822662 C50.4380279,110.009746 46.2330659,114.214708 41.0459824,114.214708 L41.0459824,114.214708 C35.8588989,114.214708 31.6539369,110.009746 31.6539369,104.822662 L31.6539369,50.4249349 C31.6539369,45.2378514 35.8588989,41.0328894 41.0459824,41.0328894 Z" id="Rectangle-5" fill="#063A6B"></path>
                    <path d="M56.3429857,-15.1189121 L56.3429857,-15.1189121 C61.5755699,-15.1189121 65.8174175,-10.8770645 65.8174175,-5.64448033 L65.8174175,25.281656 C65.8174175,30.5142402 61.5755699,34.7560879 56.3429857,34.7560879 L56.3429857,34.7560879 C51.1104015,34.7560879 46.8685538,30.5142402 46.8685538,25.281656 L46.8685538,-5.64448033 C46.8685538,-10.8770645 51.1104015,-15.1189121 56.3429857,-15.1189121 Z" id="Rectangle-5" fill="#063A6B" transform="translate(56.342986, 9.818588) rotate(90.000000) translate(-56.342986, -9.818588) "></path>
                    <path d="M56.4156544,79.6524114 L56.4156544,79.6524114 C61.6482386,79.6524114 65.8900862,83.8942591 65.8900862,89.1268433 L65.8900862,120.05298 C65.8900862,125.285564 61.6482386,129.527411 56.4156544,129.527411 L56.4156544,129.527411 C51.1830702,129.527411 46.9412226,125.285564 46.9412226,120.05298 L46.9412226,89.1268433 C46.9412226,83.8942591 51.1830702,79.6524114 56.4156544,79.6524114 Z" id="Rectangle-5" fill="#063A6B" transform="translate(56.415654, 104.589911) rotate(90.000000) translate(-56.415654, -104.589911) "></path>
                    <path d="M94.5511593,50.2380271 L19.0909786,50.2380271 L19.0909786,63.2147259 L94.5511593,63.2147259 L94.5511593,50.2380271 Z M105.7621,31.8680423 C110.163868,32.684213 113.497205,36.5438338 113.497205,41.1819973 L113.497205,72.06645 C113.497205,75.578395 111.586109,78.6439795 108.747147,80.2799729 C107.152961,81.4907414 105.164528,82.209331 103.008261,82.209331 L9.64223516,82.209331 C4.39701979,82.209331 0.144932592,77.9572438 0.144932592,72.7120285 C0.144932592,72.6039318 0.146738519,72.4962569 0.150321847,72.3890324 C0.146738531,72.2819458 0.144932592,72.1744088 0.144932592,72.06645 L0.144932592,41.1819973 C0.144932592,41.1082994 0.145774177,41.034798 0.147448261,40.9615022 C0.145774173,40.8881123 0.144932592,40.8145167 0.144932592,40.7407245 C0.144932592,35.4955091 4.39701979,31.2434219 9.64223516,31.2434219 L102.367552,31.2434219 C103.563585,31.2434219 104.70798,31.4645082 105.7621,31.8680423 Z" id="Combined-Shape" fill="#5AD993"></path>
                    <path d="M63.2607847,105.105699 L63.2607847,9.54319865 C63.2607847,4.35611518 67.4657466,0.1511532 72.6528301,0.1511532 L72.6528301,0.1511532 C77.8399136,0.1511532 82.0448756,4.35611518 82.0448756,9.54319865 L82.0448756,105.105699 C82.0448756,110.292782 77.8399136,114.497744 72.6528301,114.497744 L72.6528301,114.497744 C67.4657466,114.497744 63.2607847,110.292782 63.2607847,105.105699 Z" id="Rectangle-5" fill="#063A6B"></path>
                    <path d="M41.0735856,4.31524451 L41.0735856,4.31524451 C46.2606691,4.31524451 50.4656311,8.52020649 50.4656311,13.70729 L50.4656311,50.4629718 C50.4656311,55.6500553 46.2606691,59.8550172 41.0735856,59.8550172 L41.0735856,59.8550172 C35.8865022,59.8550172 31.6815402,55.6500553 31.6815402,50.4629718 L31.6815402,13.70729 C31.6815402,8.52020649 35.8865022,4.31524451 41.0735856,4.31524451 Z" id="Rectangle-5" fill="#063A6B"></path>
                    <polygon id="Rectangle-5" fill="#5AD993" points="30.1819234 65.9113331 48.9660143 65.9113331 48.9660143 70.4851967 30.1819234 70.4851967"></polygon>
                    <path d="M63.1688219,31.0790151 L102.515413,31.0790151 C107.747997,31.0790151 111.989845,35.3208627 111.989845,40.5534469 L111.989845,40.5534469 C111.989845,45.7860311 107.747997,50.0278788 102.515413,50.0278788 L63.1688219,50.0278788 C57.9362377,50.0278788 53.6943901,45.7860311 53.6943901,40.5534469 L53.6943901,40.5534469 C53.6943901,35.3208627 57.9362377,31.0790151 63.1688219,31.0790151 Z" id="Rectangle-5" fill="#5AD993"></path>
                </g>
            </g>
        </g>
    </g>
</svg>