<?xml version="1.0" encoding="UTF-8"?>
<svg width="189px" height="86px" viewBox="0 0 189 86" version="1.1" xmlns="http://www.w3.org/2000/svg" xmlns:xlink="http://www.w3.org/1999/xlink">
    <!-- Generator: Sketch 52.1 (67048) - http://www.bohemiancoding.com/sketch -->
    <title>Roles</title>
    <desc>Created with Sketch.</desc>
    <g id="Desktop-Desktop" stroke="none" stroke-width="1" fill="none" fill-rule="evenodd">
        <g id="THE-DESKTOP-CS" transform="translate(-271.000000, -1565.000000)" fill="#000000">
            <g id="Group-5" transform="translate(196.000000, 1565.000000)">
                <g id="Roles" transform="translate(75.000000, 0.000000)">
                    <path d="M154.936047,35.2820513 C147.057933,35.2820513 140.651163,28.8535513 140.651163,20.9487179 C140.651163,13.0438846 147.057933,6.61538462 154.936047,6.61538462 C162.81416,6.61538462 169.22093,13.0438846 169.22093,20.9487179 C169.22093,28.8535513 162.81416,35.2820513 154.936047,35.2820513 M167.051386,37.6565333 C171.854623,33.7790359 174.934884,27.8375385 174.934884,21.1692308 C174.934884,9.47675897 165.490158,0 153.837209,0 C142.18426,0 132.739535,9.47675897 132.739535,21.1692308 C132.739535,27.8375385 135.819795,33.7790359 140.623033,37.6565333 C127.756967,42.5078154 118.674419,54.4931282 118.674419,70.5641026 L125.706977,70.5641026 C125.706977,52.9230769 138.326902,42.3384615 153.837209,42.3384615 C169.347516,42.3384615 181.967442,52.9230769 181.967442,70.5641026 L189,70.5641026 C189,54.4931282 179.917451,42.5078154 167.051386,37.6565333" id="profile-[#1335]"></path>
                    <path d="M95.5988372,50.7179487 C87.7207238,50.7179487 81.3139535,44.2894487 81.3139535,36.3846154 C81.3139535,28.4797821 87.7207238,22.0512821 95.5988372,22.0512821 C103.476951,22.0512821 109.883721,28.4797821 109.883721,36.3846154 C109.883721,44.2894487 103.476951,50.7179487 95.5988372,50.7179487 M107.714177,53.0924308 C112.517414,49.2149333 115.597674,43.2734359 115.597674,36.6051282 C115.597674,24.9126564 106.152949,15.4358974 94.5,15.4358974 C82.8470512,15.4358974 73.4023256,24.9126564 73.4023256,36.6051282 C73.4023256,43.2734359 76.482586,49.2149333 81.2858233,53.0924308 C68.4197581,57.9437128 59.3372093,69.9290256 59.3372093,86 L66.3697674,86 C66.3697674,68.3589744 78.989693,57.774359 94.5,57.774359 C110.010307,57.774359 122.630233,68.3589744 122.630233,86 L129.662791,86 C129.662791,69.9290256 120.580242,57.9437128 107.714177,53.0924308" id="profile-[#1335]"></path>
                    <path d="M36.2616279,35.2820513 C28.3835145,35.2820513 21.9767442,28.8535513 21.9767442,20.9487179 C21.9767442,13.0438846 28.3835145,6.61538462 36.2616279,6.61538462 C44.1397413,6.61538462 50.5465116,13.0438846 50.5465116,20.9487179 C50.5465116,28.8535513 44.1397413,35.2820513 36.2616279,35.2820513 M48.3769674,37.6565333 C53.1802047,33.7790359 56.2604651,27.8375385 56.2604651,21.1692308 C56.2604651,9.47675897 46.8157395,0 35.1627907,0 C23.5098419,0 14.0651163,9.47675897 14.0651163,21.1692308 C14.0651163,27.8375385 17.1453767,33.7790359 21.948614,37.6565333 C9.08254884,42.5078154 0,54.4931282 0,70.5641026 L7.03255814,70.5641026 C7.03255814,52.9230769 19.6524837,42.3384615 35.1627907,42.3384615 C50.6730977,42.3384615 63.2930233,52.9230769 63.2930233,70.5641026 L70.3255814,70.5641026 C70.3255814,54.4931282 61.2430326,42.5078154 48.3769674,37.6565333" id="profile-[#1335]"></path>
                </g>
            </g>
        </g>
    </g>
</svg>