<?xml version="1.0" encoding="UTF-8"?>
<svg width="32px" height="32px" viewBox="0 0 32 32" version="1.1" xmlns="http://www.w3.org/2000/svg" xmlns:xlink="http://www.w3.org/1999/xlink">
    <!-- Generator: Sketch 52.1 (67048) - http://www.bohemiancoding.com/sketch -->
    <title>Fill-167</title>
    <desc>Created with Sketch.</desc>
    <g id="Page-1" stroke="none" stroke-width="1" fill="none" fill-rule="evenodd">
        <g id="tools" fill="#000000" fill-rule="nonzero">
            <path d="M26,30 C23.796,29.996 22.004,28.204 22,26 C21.999,25.873 22.025,25.696 22.06,25.449 C22.103,25.138 21.999,24.827 21.777,24.605 L17.377,20.205 C17.165,19.993 16.868,19.887 16.569,19.918 C16.271,19.948 16.001,20.111 15.836,20.361 L15.747,20.495 L6.533,29.709 C6.339,29.903 6.088,29.999 5.826,30 C5.564,29.999 5.313,29.903 5.119,29.709 L2.291,26.881 C2.097,26.687 2.001,26.436 2,26.174 C2.001,25.912 2.097,25.661 2.291,25.467 L11.505,16.253 L11.639,16.164 C11.889,15.999 12.052,15.729 12.082,15.431 C12.113,15.132 12.007,14.835 11.795,14.623 L11.769,14.598 L11.049,13.877 C10.776,13.604 10.37,13.513 10.006,13.642 C9.359,13.873 8.677,13.989 7.994,13.989 C6.454,13.988 4.919,13.404 3.752,12.237 C2.585,11.07 2.001,9.535 2,7.994 C2,7.89 2.021,7.787 2.026,7.683 L5.166,10.823 C5.402,11.059 5.741,11.162 6.069,11.096 L9.605,10.389 C10.001,10.31 10.31,10.001 10.389,9.605 L11.096,6.069 C11.162,5.741 11.059,5.402 10.823,5.166 L7.683,2.026 C7.787,2.021 7.89,2 7.994,2 C9.535,2.001 11.07,2.585 12.237,3.752 C13.404,4.918 13.988,6.454 13.989,7.994 C13.989,8.677 13.873,9.359 13.643,10.006 C13.513,10.369 13.605,10.776 13.878,11.049 L16,13.171 C16.186,13.358 16.444,13.464 16.707,13.464 C16.971,13.464 17.228,13.358 17.414,13.171 L21.847,8.739 C22.033,8.553 22.14,8.295 22.14,8.032 L22.14,5.77 L28.016,2.258 L29.742,3.984 L26.229,9.86 L23.968,9.86 C23.705,9.86 23.447,9.967 23.261,10.153 L18.829,14.586 C18.438,14.976 18.438,15.609 18.829,16 L24.605,21.776 C24.827,21.998 25.137,22.103 25.448,22.06 C25.696,22.025 25.873,21.999 26,22 C28.204,22.004 29.996,23.796 30,26 C29.996,28.204 28.204,29.996 26,30 Z M26,20 C25.88,20 25.78,20.011 25.678,20.021 L20.95,15.293 L24.383,11.86 L26.797,11.86 C27.147,11.86 27.475,11.674 27.655,11.373 L31.859,4.341 C32.094,3.947 32.032,3.445 31.707,3.121 L28.879,0.293 C28.554,-0.032 28.053,-0.094 27.659,0.142 L20.627,4.345 C20.326,4.525 20.14,4.852 20.14,5.203 L20.14,7.617 L16.707,11.05 L15.717,10.06 C15.897,9.384 15.989,8.689 15.989,7.994 C15.99,5.949 15.207,3.893 13.651,2.337 C12.095,0.781 10.039,-0.001 7.994,1.16573418e-15 C7.086,1.16573418e-15 6.177,0.154 5.311,0.462 C4.987,0.578 4.747,0.849 4.671,1.185 C4.596,1.521 4.696,1.868 4.94,2.111 L9.03,6.202 L8.559,8.559 L6.202,9.03 L2.111,4.939 C1.868,4.696 1.52,4.595 1.185,4.671 C0.849,4.747 0.578,4.986 0.462,5.311 C0.154,6.177 -1.13908882e-13,7.085 -1.13908882e-13,7.994 C-0.001,10.039 0.781,12.095 2.338,13.651 C3.893,15.208 5.949,15.989 7.994,15.989 C8.335,15.989 8.674,15.96 9.013,15.917 L0.877,24.053 C0.292,24.636 -0.001,25.411 -1.13908882e-13,26.174 C-0.001,26.937 0.292,27.712 0.877,28.295 L3.705,31.123 C4.288,31.708 5.063,32.001 5.826,32 C6.59,32.001 7.364,31.708 7.947,31.124 L16.707,22.364 L20.021,25.677 C20.011,25.78 20.001,25.88 20,26 C20.002,29.312 22.688,31.998 26,32 C29.312,31.998 31.998,29.312 32,26 C31.998,22.688 29.312,20.002 26,20 Z" id="Fill-167"></path>
        </g>
    </g>
</svg>